HIERARCHY
ROOT hips
{
  OFFSET 0 10.074487846421558 1.314567655973056
  CHANNELS 6 Xposition Yposition Zposition Yrotation Xrotation Zrotation
  JOINT spine
  {
    OFFSET -7.042773748992335e-31 0.5690686926897363 0
    CHANNELS 3 Yrotation Xrotation Zrotation
    JOINT chest
    {
      OFFSET 0 1.2435964857087873 0
      CHANNELS 3 Yrotation Xrotation Zrotation
      JOINT upperChest
      {
        OFFSET 0 1.194994586872362 0
        CHANNELS 3 Yrotation Xrotation Zrotation
        JOINT neck
        {
          OFFSET 0 1.515103653293861 0
          CHANNELS 3 Yrotation Xrotation Zrotation
          JOINT head
          {
            OFFSET 0 0.8111851616465653 0
            CHANNELS 3 Yrotation Xrotation Zrotation
            JOINT leftEye
            {
              OFFSET 0.27141371691966987 0.7490044407698551 0.18219031050045686
              CHANNELS 3 Yrotation Xrotation Zrotation
              End Site
              {
                OFFSET 0.27141371691966987 0.7490044407698551 0.18219031050045686
              }
            }
            JOINT rightEye
            {
              OFFSET -0.2714136877644943 0.7490044019380786 0.18219040411850668
              CHANNELS 3 Yrotation Xrotation Zrotation
              End Site
              {
                OFFSET -0.2714136877644943 0.7490044019380786 0.18219040411850668
              }
            }
          }
        }
        JOINT leftShoulder
        {
          OFFSET 0.4137993136083964 1.1593397335613034 0
          CHANNELS 3 Yrotation Xrotation Zrotation
          JOINT leftUpperArm
          {
            OFFSET 1.0096991868951026 0 0
            CHANNELS 3 Yrotation Xrotation Zrotation
            JOINT leftLowerArm
            {
              OFFSET 2.418380967671622 0 0
              CHANNELS 3 Yrotation Xrotation Zrotation
              JOINT leftHand
              {
                OFFSET 2.361538296260114 0 0
                CHANNELS 3 Yrotation Xrotation Zrotation
                JOINT leftIndexProximal
                {
                  OFFSET 0.7243699271447109 0.08118285989887508 0.2022042461579805
                  CHANNELS 3 Yrotation Xrotation Zrotation
                  JOINT leftIndexIntermediate
                  {
                    OFFSET 0.36553107045252053 -0.010567764853200323 -0.014102670024158437
                    CHANNELS 3 Yrotation Xrotation Zrotation
                    JOINT leftIndexDistal
                    {
                      OFFSET 0.22505120770060527 -0.007821041598631284 -0.007511611613336286
                      CHANNELS 3 Yrotation Xrotation Zrotation
                      End Site
                      {
                        OFFSET 0.22505120770060527 -0.007821041598631284 -0.007511611613336286
                      }
                    }
                  }
                }
                JOINT leftLittleProximal
                {
                  OFFSET 0.6721063881632002 0.08118279568569564 -0.3209324945517917
                  CHANNELS 3 Yrotation Xrotation Zrotation
                  JOINT leftLittleIntermediate
                  {
                    OFFSET 0.34587329423120616 5.3042709780015684e-8 -5.929537746918179e-8
                    CHANNELS 3 Yrotation Xrotation Zrotation
                    JOINT leftLittleDistal
                    {
                      OFFSET 0.1992782500022232 0.0030983716482184676 0.0038310952896712935
                      CHANNELS 3 Yrotation Xrotation Zrotation
                      End Site
                      {
                        OFFSET 0.1992782500022232 0.0030983716482184676 0.0038310952896712935
                      }
                    }
                  }
                }
                JOINT leftMiddleProximal
                {
                  OFFSET 0.7301229696860206 0.08118412848995638 0.022516891543707507
                  CHANNELS 3 Yrotation Xrotation Zrotation
                  JOINT leftMiddleIntermediate
                  {
                    OFFSET 0.4076277831942017 -0.000001240188283180288 -1.6203245635504349e-7
                    CHANNELS 3 Yrotation Xrotation Zrotation
                    JOINT leftMiddleDistal
                    {
                      OFFSET 0.2514739255593972 0.0000013850839168938478 -1.8644847207816007e-8
                      CHANNELS 3 Yrotation Xrotation Zrotation
                      End Site
                      {
                        OFFSET 0.2514739255593972 0.0000013850839168938478 -1.8644847207816007e-8
                      }
                    }
                  }
                }
                JOINT leftRingProximal
                {
                  OFFSET 0.7218060861525873 0.08118280646416753 -0.1494689818508163
                  CHANNELS 3 Yrotation Xrotation Zrotation
                  JOINT leftRingIntermediate
                  {
                    OFFSET 0.3781267508900358 0.000001373626195677602 -1.4143108284514483e-7
                    CHANNELS 3 Yrotation Xrotation Zrotation
                    JOINT leftRingDistal
                    {
                      OFFSET 0.21814333268795483 -0.0027137626495670197 -0.004991775417842292
                      CHANNELS 3 Yrotation Xrotation Zrotation
                      End Site
                      {
                        OFFSET 0.21814333268795483 -0.0027137626495670197 -0.004991775417842292
                      }
                    }
                  }
                }
                JOINT leftThumbProximal
                {
                  OFFSET 0.10743676110519984 -0.16423092885053192 -0.07708859146227388
                  CHANNELS 3 Yrotation Xrotation Zrotation
                  JOINT leftThumbIntermediate
                  {
                    OFFSET 0.40350402100066307 -0.01735099334274981 0.315629965828783
                    CHANNELS 3 Yrotation Xrotation Zrotation
                    JOINT leftThumbDistal
                    {
                      OFFSET 0.2320014489535681 -0.01842351809041043 0.21271298411519196
                      CHANNELS 3 Yrotation Xrotation Zrotation
                      End Site
                      {
                        OFFSET 0.2320014489535681 -0.01842351809041043 0.21271298411519196
                      }
                    }
                  }
                }
              }
            }
          }
        }
        JOINT rightShoulder
        {
          OFFSET -0.41379931360839656 1.1593397335613034 0
          CHANNELS 3 Yrotation Xrotation Zrotation
          JOINT rightUpperArm
          {
            OFFSET -1.0096991868951024 0 0
            CHANNELS 3 Yrotation Xrotation Zrotation
            JOINT rightLowerArm
            {
              OFFSET -2.4183809676716232 0 0
              CHANNELS 3 Yrotation Xrotation Zrotation
              JOINT rightHand
              {
                OFFSET -2.3615382962601132 0 0
                CHANNELS 3 Yrotation Xrotation Zrotation
                JOINT rightIndexProximal
                {
                  OFFSET -0.7243699271447109 0.08118285989887508 0.2022042461579805
                  CHANNELS 3 Yrotation Xrotation Zrotation
                  JOINT rightIndexIntermediate
                  {
                    OFFSET -0.36553107045252053 -0.010567764853200323 -0.014102670024158437
                    CHANNELS 3 Yrotation Xrotation Zrotation
                    JOINT rightIndexDistal
                    {
                      OFFSET -0.22505120770060527 -0.007821041598631284 -0.007511611613336286
                      CHANNELS 3 Yrotation Xrotation Zrotation
                      End Site
                      {
                        OFFSET -0.22505120770060527 -0.007821041598631284 -0.007511611613336286
                      }
                    }
                  }
                }
                JOINT rightLittleProximal
                {
                  OFFSET -0.6721063881632002 0.08118279568569564 -0.3209324945517917
                  CHANNELS 3 Yrotation Xrotation Zrotation
                  JOINT rightLittleIntermediate
                  {
                    OFFSET -0.34587329423120616 5.3042709780015684e-8 -5.929537746918179e-8
                    CHANNELS 3 Yrotation Xrotation Zrotation
                    JOINT rightLittleDistal
                    {
                      OFFSET -0.1992782500022232 0.0030983716482184676 0.0038310952896712935
                      CHANNELS 3 Yrotation Xrotation Zrotation
                      End Site
                      {
                        OFFSET -0.1992782500022232 0.0030983716482184676 0.0038310952896712935
                      }
                    }
                  }
                }
                JOINT rightMiddleProximal
                {
                  OFFSET -0.7301229696860206 0.08118412848995638 0.022516891543707507
                  CHANNELS 3 Yrotation Xrotation Zrotation
                  JOINT rightMiddleIntermediate
                  {
                    OFFSET -0.4076277831942017 -0.000001240188283180288 -1.6203245635504349e-7
                    CHANNELS 3 Yrotation Xrotation Zrotation
                    JOINT rightMiddleDistal
                    {
                      OFFSET -0.2514739255593972 0.0000013850839168938478 -1.8644847207816007e-8
                      CHANNELS 3 Yrotation Xrotation Zrotation
                      End Site
                      {
                        OFFSET -0.2514739255593972 0.0000013850839168938478 -1.8644847207816007e-8
                      }
                    }
                  }
                }
                JOINT rightRingProximal
                {
                  OFFSET -0.7218060861525873 0.08118280646416753 -0.1494689818508163
                  CHANNELS 3 Yrotation Xrotation Zrotation
                  JOINT rightRingIntermediate
                  {
                    OFFSET -0.3781267508900358 0.000001373626195677602 -1.4143108284514483e-7
                    CHANNELS 3 Yrotation Xrotation Zrotation
                    JOINT rightRingDistal
                    {
                      OFFSET -0.21814333268795483 -0.0027137626495670197 -0.004991775417842292
                      CHANNELS 3 Yrotation Xrotation Zrotation
                      End Site
                      {
                        OFFSET -0.21814333268795483 -0.0027137626495670197 -0.004991775417842292
                      }
                    }
                  }
                }
                JOINT rightThumbProximal
                {
                  OFFSET -0.10743676110519984 -0.16423092885053192 -0.07708859146227388
                  CHANNELS 3 Yrotation Xrotation Zrotation
                  JOINT rightThumbIntermediate
                  {
                    OFFSET -0.40350402100066307 -0.01735099334274981 0.315629965828783
                    CHANNELS 3 Yrotation Xrotation Zrotation
                    JOINT rightThumbDistal
                    {
                      OFFSET -0.2320014489535681 -0.01842351809041043 0.21271298411519196
                      CHANNELS 3 Yrotation Xrotation Zrotation
                      End Site
                      {
                        OFFSET -0.2320014489535681 -0.01842351809041043 0.21271298411519196
                      }
                    }
                  }
                }
              }
            }
          }
        }
      }
    }
  }
  JOINT leftUpperLeg
  {
    OFFSET 0.8487163290887698 -0.43932186100277326 0
    CHANNELS 3 Yrotation Xrotation Zrotation
    JOINT leftLowerLeg
    {
      OFFSET 0 -3.882816707004296 0
      CHANNELS 3 Yrotation Xrotation Zrotation
      JOINT leftFoot
      {
        OFFSET 0 -4.570431027442807 0.004629272230691511
        CHANNELS 3 Yrotation Xrotation Zrotation
        JOINT leftToes
        {
          OFFSET 0 -0.698875637876343 1.214565366696912
          CHANNELS 3 Yrotation Xrotation Zrotation
          End Site
          {
            OFFSET 0 -0.698875637876343 1.214565366696912
          }
        }
      }
    }
  }
  JOINT rightUpperLeg
  {
    OFFSET -0.8487163290887698 -0.43932186100277326 0
    CHANNELS 3 Yrotation Xrotation Zrotation
    JOINT rightLowerLeg
    {
      OFFSET 0 -3.882816707004296 0
      CHANNELS 3 Yrotation Xrotation Zrotation
      JOINT rightFoot
      {
        OFFSET 0 -4.570431027442807 0.004629272230691511
        CHANNELS 3 Yrotation Xrotation Zrotation
        JOINT rightToes
        {
          OFFSET 0 -0.698875637876343 1.214565366696912
          CHANNELS 3 Yrotation Xrotation Zrotation
          End Site
          {
            OFFSET 0 -0.698875637876343 1.214565366696912
          }
        }
      }
    }
  }
}
MOTION
Frames: 4
Frame Time: 0.03333333333333333
-0.03780326247215271 -8.772263329552967 -0.3670504689216614 -87.11207549705111 -74.13437065087199 86.3359566160337 10.983949192537601 12.841493966801876 2.0730686742468474 3.465863843502301 37.466539033771326 -1.7544987467220605 0 0 0 2.5285816772211165 -8.415304364576397 -2.4444732876078223 -2.129560980690522 31.16108040574489 1.0470406943816855 0 0 0 0 0 0 -10.408866588630849 -0.06534878286726457 -8.591338748599146 23.048368282158396 55.02420579093872 -43.642568386368175 -110.8285260522793 1.0033169521126175 0.691802789550628 -1.3554383391055673 49.54755886958514 -9.623605831063498 -3.8608100744614986 1.8922389117911282 18.528931269350174 3.57992079097301 1.4567188934889168 -44.275406646297846 -0.9045175049460142 0.08047510284955382 10.16580314836888 10.561126362746753 -3.1415103873964347 19.751991467922217 1.1495843814351348 0.13058103029704474 -12.962048279904193 1.0762660966252713 0.11426792660382913 -12.122717109618545 2.078682005136805 -0.07082700532836236 16.461560751902585 2.618121339862973 0.7190331539867031 -30.710886111501154 -0.6403635754126965 0.040174175473906296 7.178015147473802 4.6172394546449205 -0.8698778051215899 17.292346767266878 2.1761437635034984 0.4848779819431186 -25.121669630856648 -0.5324528154858033 0.0277442861887348 5.9637975962808465 -19.24609827716302 -15.558209495561412 10.496810911277073 26.096422896764444 8.247907217695664 22.27115250182052 -15.75775051176833 -20.618696020464522 -3.7646291422023346 7.544207702765024 0.39206565641456315 6.616439415253896 -10.28613203874455 56.25412927214616 50.58441990180549 112.0545000737132 1.0180004078962013 -0.6859667778497259 0.5466090717614904 49.72417656730647 10.033190059852242 -2.5510445709541063 3.6492789827628114 -14.922488007110646 -1.747880195431264 0.41083131481495205 26.452391694939813 -1.0671526553303077 0.14792674719776466 15.783181307622211 -10.24093000145218 -1.8515421364096851 -12.967998874446414 -0.5057415940389114 0.03273609128685494 7.406661486352849 0.11856078997150651 0.001789889133588819 -1.731871756527397 -5.143565233490362 -0.738837075998479 -13.452651850200027 -1.3326656749119732 0.2332701208088892 19.85600543995621 -0.1284225238274576 0.002105039581588872 1.8759358615853774 -5.359834106321371 -1.0478190293110243 -16.823622933011155 -1.8011326883944954 0.4378352351949203 27.32385726833062 0.9904839406037265 0.12708972758719594 -14.622933993046384 20.811461510326392 -10.649069036850848 -23.68822129366966 -30.633020452587992 19.024610425557327 -2.8184999830703066 16.87753790893044 -13.57933726614851 -28.867207553561013 42.12058199575607 -17.041184220859833 -6.8143627822197965 11.665455679765603 34.66563566388305 1.3498452853298113 -25.735949664619703 32.13569804372427 -19.236772350714396 -0.000010774026109190687 -13.592955233084046 0.000013791494570503665 -17.118104149043685 -2.018842565347394 4.443574023143197 4.025344616422921 8.121325759153917 10.488640687616932 26.16262618729564 5.977651374263061 19.76773725694522 -0.000002104360647282301 4.692104492111593 0.000007807015052637778
-0.03780049458146095 -8.772269766854603 -0.3671104311943054 -87.11202637452888 -74.13452055572239 86.33713948251966 10.951216908678083 12.849213164630608 2.0680138452947654 3.506830924516796 37.45704786872854 -1.7233178483122418 0 0 0 2.5020701184284637 -8.419510108224381 -2.434248011849336 -2.3660992198405966 31.05842562102121 1.1634895636000568 0 0 0 0 0 0 -10.408643375415833 -0.0660447822692681 -8.59887438460472 22.99302969510027 55.02892451227833 -43.66058686591586 -110.79997986917508 1.0029765644234083 0.691926288611014 -1.3548427521931863 49.52100608892367 -9.59968768789678 -3.7998298753760382 1.894295280962517 18.401236568908587 3.5777693663208616 1.4546354402980295 -44.24197720978031 -0.8985229254164405 0.07939838651201123 10.097462103249043 10.616461497848697 -3.140733353179296 19.64906506656021 1.1471344322829111 0.13001703130398506 -12.93426594070873 1.0746556898204522 0.11392181408552912 -12.104062855368394 2.147908610991238 -0.0884155132151489 16.344511637386102 2.618670337655937 0.7193601750558422 -30.718143933268653 -0.6403635754126965 0.040174175473906296 7.178015147473802 4.6467905622366725 -0.8727682164968189 17.20730921591396 2.175434449980181 0.48454451804074655 -25.112727360851483 -0.5311040827783611 0.027601796019630292 5.948596016227651 -19.15254622025325 -15.586027128536134 10.384119151887171 26.09936312199268 8.248996805307888 22.270934943148305 -15.750787512266207 -20.613784786601318 -3.773107807521618 7.534206643800076 0.3916675484604837 6.619295906110772 -10.335522192470714 56.26728139994185 50.54185436830764 112.0829152458286 1.0183409038985385 -0.6858301906945663 0.5278301555979932 49.74079349588477 10.033719259124291 -2.566039783612078 3.6501734171503197 -14.966104919637653 -1.7582133155510207 0.41599870088084373 26.621273252500103 -1.0654700512878499 0.14745087353075848 15.757689077610562 -10.23592425961073 -1.861198688622783 -13.008418925611817 -0.5057566412153544 0.03273661489030939 7.406659793052715 0.11942103175678367 0.0018160015587809879 -1.744373122970062 -5.136129325463133 -0.736500850957693 -13.444161920421278 -1.3326428424550671 0.23325774098842178 19.85600543995621 -0.12742457163313956 0.0020754714158427853 1.861101299806376 -5.3677687115065105 -1.050165699299513 -16.82332400203038 -1.8011326883944954 0.4378352351949203 27.32385726833062 0.992511791063097 0.12761841488344372 -14.653600447778906 20.811461510326392 -10.649069036850848 -23.68822129366966 -30.596469168662747 19.01436233642064 -2.8209549199749757 16.90867274007176 -13.584362225968011 -28.898392239884387 42.10622282929184 -17.044273959048784 -6.822442106954962 11.664977214403892 34.675406283674675 1.3392983066445048 -25.781067089967824 32.14542612383044 -19.26509341306931 -0.000006417367269980936 -13.598207986198478 -0.000017654934929158466 -17.117836822605877 -2.017941061389667 4.4422907789542885 4.024695422405765 8.118666056173428 10.488307160111312 26.162851067247203 5.97881456351824 19.768619389913347 -0.000002104360647282301 4.692104492111593 0.000007807015052637778
-0.03779757767915726 -8.772275250481922 -0.3671627938747406 -87.11201878799292 -74.13464547748524 86.33823164374249 10.932951923983337 12.853419198343133 2.078422866740487 3.5355222029038713 37.46156527210731 -1.6722215263735063 0 0 0 2.449707471429016 -8.426983550397262 -2.409509158170742 -2.755677525074491 30.940375580715944 1.425485109224167 0 0 0 0 0 0 -10.404961788597074 -0.06640436795688189 -8.603138415967384 22.87199688142659 55.01685474860782 -43.72610852967851 -110.7389132882446 1.0022403921103331 0.6922031832406725 -1.3779828800769391 49.47938523505699 -9.581609665191028 -3.7087396982201946 1.902747797586694 18.309523010853056 3.574171236590031 1.4511480411694686 -44.18606623919708 -0.8985938866905225 0.07941155331510649 10.098538157170243 10.677977153780358 -3.147472514313152 19.574401161796906 1.1467881588163331 0.12993338795186163 -12.930004437615066 1.0748988876936734 0.11398080462506617 -12.106985811632933 2.2489723179610372 -0.11511922067604952 16.23595174990548 2.619021680045775 0.7195731016457666 -30.72265702482835 -0.6403635754126965 0.040174175473906296 7.178015147473802 4.684200317190087 -0.8797945814931721 17.147585424778796 2.175139497616655 0.48440737574608705 -25.10902090346522 -0.5293582456329401 0.02741371900183465 5.928857979937725 -19.031062592449846 -15.601787339115916 10.287489757212823 26.1014410347256 8.249780999676394 22.270782406592623 -15.757698619553022 -20.618095790594516 -3.764144512165283 7.527678365329932 0.39104030368331794 6.628662954092684 -10.451354649926742 56.283729458644714 50.45325047642457 112.14422578735547 1.019059681471121 -0.685528704192189 0.4892369189854975 49.77756646238168 10.032012819146724 -2.5816671743579267 3.6512825854687394 -14.968332328260368 -1.7371162375555276 0.405505179575944 26.27721982170814 -1.0642951836602221 0.1471065614899667 15.739350168577454 -10.23332180102765 -1.8644359881411174 -13.033933239385433 -0.5057275606792578 0.03272841065783862 7.406473834937205 0.12014111534509098 0.001840995282029735 -1.7548824312618654 -5.133539122471464 -0.7360431904966196 -13.446285982233363 -1.3326783714649293 0.23327086786702123 19.85601784224731 -0.12653199925435363 0.0020409531972251623 1.8480481273883085 -5.367547338654202 -1.0487677306164123 -16.806694942360075 -1.8011326883944954 0.4378352351949203 27.32385726833062 0.9957140823665216 0.12845109973162872 -14.702126886401995 20.811461510326392 -10.649069036850848 -23.68822129366966 -30.555508589362756 19.002848890350702 -2.82373636835213 16.94422792688024 -13.590026742022461 -28.934010644307776 42.06666430304208 -17.045358058483803 -6.846949874667155 11.66435743781198 34.670938147937626 1.352923280456741 -25.83323493018566 32.15068584981429 -19.292917604157196 0.000007539976662171873 -13.595512202535765 -0.000028530205170306403 -17.117669365042264 -2.017204224837345 4.441162010894076 4.024176250213979 8.116433264644185 10.488011635887492 26.16302541897993 5.979803490940822 19.76937282348134 -0.000002104360647282301 4.692104492111593 0.000007807015052637778
-0.037796664983034134 -8.772274892854053 -0.36716359853744507 -87.11203661967909 -74.13467046195281 86.33825922032962 10.940431595841412 12.858581603356837 2.101506159039691 3.5345107905966766 37.463299167023145 -1.62874639523134 0 0 0 2.3973088374222007 -8.433553463162704 -2.377207835529045 -3.0884613157336362 30.91442255820563 1.707044432455325 0 0 0 0 0 0 -10.417315426864175 -0.0670092002941084 -8.609771973429845 22.789191424325203 55.001269516490936 -43.78623299803582 -110.67749271137463 1.0014929057335384 0.692485414249703 -1.4244763495644057 49.44648694634883 -9.583911912449429 -3.6976367093562046 1.9056481741937406 18.3418943799153 3.573415598763943 1.450408436107138 -44.17440272084574 -0.9048226924140638 0.08052059969165269 10.169224260170417 10.686512109455764 -3.152075972562521 19.582731731825792 1.1475294679127122 0.13010798511207908 -12.938677379209924 1.0762051691604666 0.11425457302383983 -12.121859387468282 2.2609867700882327 -0.11866808496537805 16.238952665064527 2.619011444656579 0.7195575724129323 -30.72244732545677 -0.6403635754126965 0.040174175473906296 7.178015147473802 4.689150369980066 -0.8829346522236552 17.17013763992629 2.1760888164634724 0.4848440965882315 -25.1207330389704 -0.5288708901454324 0.02736738009838394 5.923527258947078 -19.021668838527706 -15.595171094366266 10.299523117403718 26.098688985669284 8.248762151189865 22.270983710383042 -15.778317251087461 -20.631950939697 -3.7383278655367187 7.528786966014917 0.3912499633598798 6.624911385770981 -10.54590826495298 56.30340383780302 50.39972538764599 112.20040639761778 1.0197372581001294 -0.6852480176035268 0.45014293945233136 49.820014822160545 10.025685010280307 -2.579033114711496 3.651247937305397 -14.933008594383654 -1.704466010574562 0.3895760745863254 25.747088234174775 -1.063685225306096 0.14694079545471053 15.73042476388419 -10.232070612060921 -1.8642756072411897 -13.051350680311977 -0.5057249994577175 0.032733399898398005 7.406313716565792 0.11972462145444797 0.0018273153102445292 -1.7486714846984004 -5.139879516527921 -0.7390313256573897 -13.467891745890311 -1.332668022173874 0.23326723929895188 19.85610537218517 -0.12684784137024468 0.0020523599133011584 1.8527606893181847 -5.358548194250819 -1.0453760820756595 -16.797813367243094 -1.8011326883944954 0.4378352351949203 27.32385726833062 0.9969384613658884 0.12877289316569507 -14.720552513041566 20.811461510326392 -10.649069036850848 -23.68822129366966 -30.533432897408094 18.99663828143777 -2.8252457070687576 16.969986064645905 -13.594113815273774 -28.95965117010843 42.046516197523005 -17.042864817782288 -6.864359286119769 11.663878137123293 34.65772616757772 1.3716041382851736 -25.84152123019148 32.14860854447633 -19.293732259129964 0.000006209576671098202 -13.592836652209066 0.000005647735748443889 -17.117712329900574 -2.0174686316545314 4.441161101256705 4.024255748879139 8.116896380291221 10.488072090829759 26.162994814842712 5.979617637690692 19.769251290283922 -0.000002104360647282301 4.692104492111593 0.000007807015052637778
